<?xml version="1.0" standalone="no"?>
<!DOCTYPE svg PUBLIC "-//W3C//DTD SVG 20010904//EN"
 "http://www.w3.org/TR/2001/REC-SVG-20010904/DTD/svg10.dtd">
<svg version="1.0" xmlns="http://www.w3.org/2000/svg"
 width="842.000000pt" height="596.000000pt" viewBox="0 0 842.000000 596.000000"
 preserveAspectRatio="xMidYMid meet">

<g transform="translate(0.000000,596.000000) scale(0.100000,-0.100000)"
fill="#000000" stroke="none">
<path d="M0 2980 l0 -2980 4210 0 4210 0 0 2980 0 2980 -4210 0 -4210 0 0
-2980z m6050 1624 c0 -8 -4 -14 -8 -14 -4 0 -33 -23 -64 -50 -67 -59 -108
-124 -173 -275 -64 -144 -169 -349 -233 -453 -29 -46 -52 -85 -52 -87 0 -2 34
-21 75 -43 119 -65 219 -145 543 -434 259 -231 430 -345 577 -383 113 -29 212
-15 262 37 30 31 33 61 18 169 -7 52 -6 57 16 73 13 9 36 16 51 16 67 0 108
-48 108 -127 -1 -178 -228 -308 -479 -275 -234 31 -413 135 -781 453 -183 157
-288 241 -355 284 -67 43 -205 118 -210 114 -4 -5 197 -669 220 -727 16 -40
19 -42 59 -42 36 0 79 9 173 36 17 5 22 1 28 -26 4 -17 5 -33 3 -35 -2 -2 -74
-24 -160 -49 -151 -44 -276 -98 -424 -185 l-52 -30 -13 31 c-12 29 -11 32 12
47 52 34 109 94 120 128 27 82 2 188 -223 958 -72 248 -132 451 -133 453 -4 5
-83 -32 -147 -69 -83 -48 -171 -128 -204 -185 -64 -109 -51 -178 47 -245 80
-54 99 -76 99 -116 0 -75 -87 -98 -171 -45 -32 21 -54 46 -79 93 -33 60 -35
70 -35 154 1 120 26 184 107 271 65 69 159 133 280 189 89 41 290 116 296 110
2 -2 13 -50 24 -107 22 -120 148 -548 160 -548 15 0 67 63 133 161 107 159
286 536 272 573 -8 21 -42 20 -122 -5 -37 -11 -68 -19 -69 -17 -2 2 -8 18 -14
35 -11 32 -11 33 31 43 93 23 326 102 397 134 77 34 90 35 90 10z m-1785 -641
c13 -98 55 -321 79 -418 13 -55 74 -296 134 -535 116 -456 139 -587 127 -710
-24 -245 -170 -432 -385 -494 -85 -25 -203 -23 -272 3 -104 40 -148 122 -93
176 33 33 71 32 186 -6 159 -52 244 -49 314 12 55 48 71 119 56 238 -23 186
-111 590 -257 1184 l-106 428 -32 -7 c-93 -20 -235 -101 -296 -170 -50 -57
-90 -150 -90 -209 0 -62 25 -105 81 -142 85 -58 109 -83 109 -117 0 -45 -23
-73 -69 -81 -138 -23 -265 192 -225 383 18 88 58 156 137 234 54 54 90 79 180
123 98 49 371 153 404 154 7 1 14 -19 18 -46z m-1085 -438 c264 -80 379 -343
259 -591 -37 -75 -131 -180 -214 -239 -70 -51 -220 -124 -308 -151 -43 -13
-56 -22 -52 -33 17 -57 145 -589 145 -606 0 -41 10 -43 103 -24 97 19 195 61
268 114 27 19 50 31 53 27 2 -4 7 -23 11 -42 6 -33 4 -36 -42 -65 -86 -55
-141 -74 -453 -160 -94 -26 -273 -105 -330 -145 l-29 -21 -11 38 c-9 34 -8 40
11 53 146 105 164 133 163 250 -1 73 -16 142 -103 485 -169 662 -158 631 -237
622 -24 -2 -44 -2 -44 2 0 3 -3 16 -6 28 -5 19 7 28 112 82 66 33 137 71 159
85 44 27 55 26 55 -7 0 -22 137 -598 144 -605 6 -6 148 39 191 61 66 33 149
121 180 189 37 82 46 210 20 289 -86 265 -335 334 -678 188 -158 -67 -337
-216 -432 -359 -138 -207 -162 -448 -65 -641 58 -115 144 -178 293 -215 93
-23 131 -50 135 -95 5 -54 -24 -74 -107 -74 -155 0 -314 126 -410 325 -57 116
-75 207 -68 339 6 126 24 197 77 309 70 148 162 257 296 354 148 106 387 208
569 242 98 19 267 14 345 -9z"/>
</g>
</svg>
